<svg width="24" height="24" viewBox="0 0 24 24" fill="none" xmlns="http://www.w3.org/2000/svg">
<path d="M21 12V4.50003C21 4.10221 20.842 3.72067 20.5607 3.43937C20.2794 3.15807 19.8978 3.00003 19.5 3.00003H4.5C4.10218 3.00003 3.72064 3.15807 3.43934 3.43937C3.15804 3.72067 3 4.10221 3 4.50003V19.5C3 19.8979 3.15804 20.2794 3.43934 20.5607C3.72064 20.842 4.10218 21 4.5 21H12" stroke="#AAAAAA" stroke-width="2.12144" stroke-linecap="round" stroke-linejoin="round"/>
<path d="M16 19C17.6569 19 19 17.6569 19 16C19 14.3431 17.6569 13 16 13C14.3431 13 13 14.3431 13 16C13 17.6569 14.3431 19 16 19Z" stroke="#AAAAAA" stroke-width="2.12144"/>
<path d="M18.5 18.0001L21 20.0001M7 8.00006H17M7 12.0001H11" stroke="#AAAAAA" stroke-width="2.12144" stroke-linecap="round" stroke-linejoin="round"/>
</svg>
