<svg width="25" height="24" viewBox="0 0 25 24" fill="none" xmlns="http://www.w3.org/2000/svg">
<path d="M4.70068 19V10C4.70068 9.68333 4.77168 9.38333 4.91368 9.1C5.05568 8.81667 5.25135 8.58333 5.50068 8.4L11.5007 3.9C11.8507 3.63333 12.2507 3.5 12.7007 3.5C13.1507 3.5 13.5507 3.63333 13.9007 3.9L19.9007 8.4C20.1507 8.58333 20.3467 8.81667 20.4887 9.1C20.6307 9.38333 20.7014 9.68333 20.7007 10V19C20.7007 19.55 20.5047 20.021 20.1127 20.413C19.7207 20.805 19.25 21.0007 18.7007 21H15.7007C15.4174 21 15.18 20.904 14.9887 20.712C14.7974 20.52 14.7014 20.2827 14.7007 20V15C14.7007 14.7167 14.6047 14.4793 14.4127 14.288C14.2207 14.0967 13.9834 14.0007 13.7007 14H11.7007C11.4174 14 11.18 14.096 10.9887 14.288C10.7974 14.48 10.7014 14.7173 10.7007 15V20C10.7007 20.2833 10.6047 20.521 10.4127 20.713C10.2207 20.905 9.98335 21.0007 9.70068 21H6.70068C6.15068 21 5.68002 20.8043 5.28868 20.413C4.89735 20.0217 4.70135 19.5507 4.70068 19Z" fill="#AAAAAA"/>
</svg>
