<svg width="25" height="25" viewBox="0 0 25 25" fill="none" xmlns="http://www.w3.org/2000/svg">
<path d="M3.10693 2.05835H15.8569C17.3059 2.05835 18.4819 3.23435 18.4819 4.68335V12.9333C18.4819 13.6295 18.2054 14.2972 17.7131 14.7895C17.2208 15.2818 16.5531 15.5583 15.8569 15.5583H11.0734L7.21243 19.4178C6.90651 19.7226 6.51721 19.93 6.09361 20.0138C5.67001 20.0977 5.23106 20.0543 4.8321 19.889C4.43314 19.7238 4.09203 19.4442 3.85175 19.0854C3.61148 18.7266 3.4828 18.3047 3.48193 17.8728V15.5583H3.10693C2.41074 15.5583 1.74306 15.2818 1.25078 14.7895C0.758495 14.2972 0.481934 13.6295 0.481934 12.9333L0.481934 4.68335C0.481934 3.23435 1.65793 2.05835 3.10693 2.05835ZM2.73193 4.68335V12.9333C2.73193 13.1403 2.89993 13.3083 3.10693 13.3083H4.60693C4.9053 13.3083 5.19145 13.4269 5.40243 13.6379C5.61341 13.8488 5.73193 14.135 5.73193 14.4333V17.7183L9.81193 13.6384C10.0227 13.4273 10.3087 13.3086 10.6069 13.3083H15.8569C15.9564 13.3083 16.0518 13.2688 16.1221 13.1985C16.1924 13.1282 16.2319 13.0328 16.2319 12.9333V4.68335C16.2319 4.58389 16.1924 4.48851 16.1221 4.41818C16.0518 4.34786 15.9564 4.30835 15.8569 4.30835H3.10693C3.00748 4.30835 2.91209 4.34786 2.84177 4.41818C2.77144 4.48851 2.73193 4.58389 2.73193 4.68335ZM22.2319 7.68335C22.2319 7.58389 22.1924 7.48851 22.1221 7.41818C22.0518 7.34786 21.9564 7.30835 21.8569 7.30835H21.1069C20.8086 7.30835 20.5224 7.18982 20.3114 6.97884C20.1005 6.76787 19.9819 6.48172 19.9819 6.18335C19.9819 5.88498 20.1005 5.59883 20.3114 5.38785C20.5224 5.17688 20.8086 5.05835 21.1069 5.05835H21.8569C23.3059 5.05835 24.4819 6.23435 24.4819 7.68335V15.9333C24.4819 16.6295 24.2054 17.2972 23.7131 17.7895C23.2208 18.2818 22.5531 18.5583 21.8569 18.5583H21.4819V20.8728C21.4811 21.3047 21.3524 21.7266 21.1121 22.0854C20.8718 22.4442 20.5307 22.7238 20.1318 22.889C19.7328 23.0543 19.2939 23.0977 18.8703 23.0138C18.4467 22.93 18.0574 22.7226 17.7514 22.4178L14.3119 18.9783C14.1638 18.8408 14.0556 18.6659 13.9986 18.4721C13.9415 18.2782 13.9379 18.0725 13.9879 17.8767C14.038 17.681 14.1399 17.5023 14.283 17.3596C14.4261 17.2169 14.605 17.1154 14.8009 17.0658C14.9965 17.0159 15.2019 17.0195 15.3956 17.0762C15.5893 17.1329 15.7642 17.2408 15.9019 17.3884L19.2319 20.7183V17.4333C19.2319 17.135 19.3505 16.8488 19.5614 16.6379C19.7724 16.4269 20.0586 16.3083 20.3569 16.3083H21.8569C21.9564 16.3083 22.0518 16.2688 22.1221 16.1985C22.1924 16.1282 22.2319 16.0328 22.2319 15.9333V7.68335Z" fill="#2C2C2C"/>
</svg>
