<svg width="25" height="24" viewBox="0 0 25 24" fill="none" xmlns="http://www.w3.org/2000/svg">
<path d="M12.3281 0C5.7 0 0.328125 5.37188 0.328125 12C0.328125 18.6281 5.7 24 12.3281 24C18.9562 24 24.3281 18.6281 24.3281 12C24.3281 5.37188 18.9562 0 12.3281 0ZM12.3281 22.1531C6.72188 22.1531 2.175 17.6063 2.175 12C2.175 6.39375 6.72188 1.84688 12.3281 1.84688C17.9344 1.84688 22.4813 6.39375 22.4813 12C22.4813 17.6063 17.9391 22.1531 12.3281 22.1531ZM12.3281 3.69375C7.73906 3.69375 4.02188 7.41094 4.02188 12C4.02188 16.5891 7.74375 20.3063 12.3281 20.3063C16.9172 20.3063 20.6344 16.5891 20.6344 12C20.6344 7.41094 16.9172 3.69375 12.3281 3.69375Z" fill="#90D26D"/>
</svg>
