<svg width="34" height="34" viewBox="0 0 34 34" fill="none" xmlns="http://www.w3.org/2000/svg">
<path d="M25.4987 18.4144H18.4154V25.4977C18.4154 25.8734 18.2661 26.2338 18.0004 26.4995C17.7348 26.7651 17.3744 26.9144 16.9987 26.9144C16.623 26.9144 16.2626 26.7651 15.997 26.4995C15.7313 26.2338 15.582 25.8734 15.582 25.4977V18.4144H8.4987C8.12297 18.4144 7.76264 18.2651 7.49696 17.9995C7.23129 17.7338 7.08203 17.3734 7.08203 16.9977C7.08203 16.622 7.23129 16.2617 7.49696 15.996C7.76264 15.7303 8.12297 15.5811 8.4987 15.5811H15.582V8.49772C15.582 8.122 15.7313 7.76166 15.997 7.49599C16.2626 7.23031 16.623 7.08105 16.9987 7.08105C17.3744 7.08105 17.7348 7.23031 18.0004 7.49599C18.2661 7.76166 18.4154 8.122 18.4154 8.49772V15.5811H25.4987C25.8744 15.5811 26.2348 15.7303 26.5004 15.996C26.7661 16.2617 26.9154 16.622 26.9154 16.9977C26.9154 17.3734 26.7661 17.7338 26.5004 17.9995C26.2348 18.2651 25.8744 18.4144 25.4987 18.4144Z" fill="#2C2C2C"/>
</svg>
