<svg width="24" height="24" viewBox="0 0 24 24" fill="none" xmlns="http://www.w3.org/2000/svg">
<path opacity="0.5" d="M20.9609 10.0266C20.9147 9.87785 20.8297 9.74562 20.7157 9.64483C20.6016 9.54404 20.4629 9.4787 20.3153 9.4562L15.756 8.76166L13.7176 4.43002C13.648 4.29548 13.5439 4.18399 13.4171 4.10811C13.2904 4.03224 13.1459 3.99498 13 4.00054V17.6565L17.0776 19.9036C17.2097 19.9765 17.3587 20.0091 17.5075 19.9978C17.6564 19.9865 17.7993 19.9318 17.9201 19.8398C18.0409 19.7479 18.1347 19.6223 18.1909 19.4773C18.2472 19.3324 18.2636 19.1738 18.2384 19.0195L17.46 14.2584L20.7585 10.8864C20.8653 10.7771 20.9409 10.6387 20.9767 10.4868C21.0125 10.3348 21.007 10.1754 20.9609 10.0266Z" fill="#BBBBBB"/>
<path d="M12.1927 4.41572L9.89959 8.75147L4.77064 9.44667C4.60441 9.46919 4.44826 9.53466 4.31985 9.63567C4.19143 9.73668 4.09588 9.86921 4.044 10.0182C3.99212 10.1673 3.98599 10.3269 4.02629 10.479C4.06659 10.6311 4.15172 10.7697 4.27205 10.879L7.98265 14.2534L7.10697 19.0191C7.07873 19.1734 7.09729 19.332 7.16054 19.4769C7.2238 19.6219 7.32923 19.7475 7.46495 19.8395C7.60066 19.9316 7.76125 19.9864 7.92858 19.9978C8.09591 20.0092 8.26333 19.9767 8.41193 19.904L13 17.6539V4.00011C12.8383 3.99766 12.6787 4.03473 12.537 4.10764C12.3954 4.18055 12.2767 4.28676 12.1927 4.41572Z" fill="#FFC648"/>
</svg>
