<svg width="24" height="24" viewBox="0 0 24 24" fill="none" xmlns="http://www.w3.org/2000/svg">
<path d="M3.99867 21.0006C4.07838 21.0103 4.15896 21.0103 4.23867 21.0006L8.23867 20.0006C8.41612 19.9585 8.57865 19.8685 8.70867 19.7406L20.9987 7.41064C21.3712 7.03591 21.5803 6.52901 21.5803 6.00064C21.5803 5.47226 21.3712 4.96536 20.9987 4.59064L19.4187 3.00064C19.2329 2.81468 19.0123 2.66717 18.7696 2.56652C18.5268 2.46587 18.2665 2.41406 18.0037 2.41406C17.7408 2.41406 17.4806 2.46587 17.2378 2.56652C16.995 2.66717 16.7744 2.81468 16.5887 3.00064L4.29867 15.2906C4.16946 15.4213 4.07642 15.5832 4.02867 15.7606L3.02867 19.7606C2.99273 19.89 2.98322 20.0253 3.0007 20.1585C3.01818 20.2916 3.0623 20.4199 3.13043 20.5356C3.19856 20.6513 3.2893 20.7521 3.39724 20.832C3.50517 20.9119 3.62809 20.9693 3.75867 21.0006C3.83838 21.0103 3.91896 21.0103 3.99867 21.0006ZM17.9987 4.41064L19.5887 6.00064L17.9987 7.59064L16.4187 6.00064L17.9987 4.41064ZM5.90867 16.5106L14.9987 7.41064L16.5887 9.00064L7.48867 18.1006L5.37867 18.6206L5.90867 16.5106Z" fill="#A6917D"/>
</svg>
