<svg width="25" height="24" viewBox="0 0 25 24" fill="none" xmlns="http://www.w3.org/2000/svg">
<path fill-rule="evenodd" clip-rule="evenodd" d="M21.25 16.714C21.2488 16.7619 21.2441 16.8097 21.236 16.857C21.2571 16.9656 21.2539 17.0774 21.2267 17.1846C21.1995 17.2918 21.1489 17.3917 21.0785 17.477C21.0082 17.5623 20.9198 17.6311 20.8198 17.6783C20.7198 17.7255 20.6106 17.75 20.5 17.75H6.5C6.33585 17.75 6.1733 17.7823 6.02165 17.8451C5.86999 17.908 5.73219 18 5.61612 18.1161C5.50004 18.2322 5.40797 18.37 5.34515 18.5216C5.28233 18.6733 5.25 18.8358 5.25 19C5.25 19.1642 5.28233 19.3267 5.34515 19.4784C5.40797 19.63 5.50004 19.7678 5.61612 19.8839C5.73219 20 5.86999 20.092 6.02165 20.1549C6.1733 20.2177 6.33585 20.25 6.5 20.25H20.5C20.6989 20.25 20.8897 20.329 21.0303 20.4697C21.171 20.6103 21.25 20.8011 21.25 21C21.25 21.1989 21.171 21.3897 21.0303 21.5303C20.8897 21.671 20.6989 21.75 20.5 21.75H6.5C5.77065 21.75 5.07118 21.4603 4.55546 20.9445C4.03973 20.4288 3.75 19.7293 3.75 19V5C3.75 4.27065 4.03973 3.57118 4.55546 3.05546C5.07118 2.53973 5.77065 2.25 6.5 2.25H19.9C20.646 2.25 21.25 2.854 21.25 3.6V16.714ZM9.5 6.25C9.30109 6.25 9.11032 6.32902 8.96967 6.46967C8.82902 6.61032 8.75 6.80109 8.75 7C8.75 7.19891 8.82902 7.38968 8.96967 7.53033C9.11032 7.67098 9.30109 7.75 9.5 7.75H15.5C15.6989 7.75 15.8897 7.67098 16.0303 7.53033C16.171 7.38968 16.25 7.19891 16.25 7C16.25 6.80109 16.171 6.61032 16.0303 6.46967C15.8897 6.32902 15.6989 6.25 15.5 6.25H9.5Z" fill="#A6917D"/>
</svg>
