<svg width="24" height="24" viewBox="0 0 24 24" fill="none" xmlns="http://www.w3.org/2000/svg">
<path d="M2.625 1.5H15.375C16.824 1.5 18 2.676 18 4.125V12.375C18 13.0712 17.7234 13.7389 17.2312 14.2312C16.7389 14.7234 16.0712 15 15.375 15H10.5915L6.7305 18.8595C6.42458 19.1643 6.03528 19.3716 5.61168 19.4555C5.18808 19.5393 4.74913 19.4959 4.35017 19.3307C3.95121 19.1655 3.61009 18.8858 3.36982 18.527C3.12954 18.1682 3.00086 17.7463 3 17.3145V15H2.625C1.92881 15 1.26113 14.7234 0.768845 14.2312C0.276562 13.7389 0 13.0712 0 12.375L0 4.125C0 2.676 1.176 1.5 2.625 1.5ZM2.25 4.125V12.375C2.25 12.582 2.418 12.75 2.625 12.75H4.125C4.42337 12.75 4.70952 12.8685 4.9205 13.0795C5.13147 13.2905 5.25 13.5766 5.25 13.875V17.16L9.33 13.08C9.54078 12.869 9.82673 12.7503 10.125 12.75H15.375C15.4745 12.75 15.5698 12.7105 15.6402 12.6402C15.7105 12.5698 15.75 12.4745 15.75 12.375V4.125C15.75 4.02554 15.7105 3.93016 15.6402 3.85984C15.5698 3.78951 15.4745 3.75 15.375 3.75H2.625C2.52554 3.75 2.43016 3.78951 2.35984 3.85984C2.28951 3.93016 2.25 4.02554 2.25 4.125ZM21.75 7.125C21.75 7.02554 21.7105 6.93016 21.6402 6.85983C21.5698 6.78951 21.4745 6.75 21.375 6.75H20.625C20.3266 6.75 20.0405 6.63147 19.8295 6.4205C19.6185 6.20952 19.5 5.92337 19.5 5.625C19.5 5.32663 19.6185 5.04048 19.8295 4.8295C20.0405 4.61853 20.3266 4.5 20.625 4.5H21.375C22.824 4.5 24 5.676 24 7.125V15.375C24 16.0712 23.7234 16.7389 23.2312 17.2312C22.7389 17.7234 22.0712 18 21.375 18H21V20.3145C20.9991 20.7463 20.8705 21.1682 20.6302 21.527C20.3899 21.8858 20.0488 22.1655 19.6498 22.3307C19.2509 22.4959 18.8119 22.5393 18.3883 22.4555C17.9647 22.3716 17.5754 22.1643 17.2695 21.8595L13.83 18.42C13.6819 18.2825 13.5737 18.1076 13.5166 17.9137C13.4596 17.7198 13.4559 17.5142 13.506 17.3184C13.5561 17.1226 13.658 16.9439 13.8011 16.8012C13.9442 16.6585 14.1231 16.5571 14.319 16.5075C14.5146 16.4575 14.72 16.4611 14.9137 16.5179C15.1074 16.5746 15.2823 16.6824 15.42 16.83L18.75 20.16V16.875C18.75 16.5766 18.8685 16.2905 19.0795 16.0795C19.2905 15.8685 19.5766 15.75 19.875 15.75H21.375C21.4745 15.75 21.5698 15.7105 21.6402 15.6402C21.7105 15.5698 21.75 15.4745 21.75 15.375V7.125Z" fill="#AAAAAA"/>
</svg>
