<svg width="12" height="12" viewBox="0 0 12 12" fill="none" xmlns="http://www.w3.org/2000/svg">
<path d="M1.2274 3.96935C1.36805 3.82874 1.55878 3.74976 1.75765 3.74976C1.95653 3.74976 2.14726 3.82874 2.2879 3.96935L6.0004 7.68185L9.7129 3.96935C9.85435 3.83273 10.0438 3.75713 10.2405 3.75884C10.4371 3.76055 10.6252 3.83943 10.7643 3.97848C10.9033 4.11754 10.9822 4.30565 10.9839 4.5023C10.9856 4.69894 10.91 4.8884 10.7734 5.02985L6.53065 9.2726C6.39001 9.4132 6.19928 9.49219 6.0004 9.49219C5.80153 9.49219 5.6108 9.4132 5.47015 9.2726L1.2274 5.02985C1.0868 4.8892 1.00781 4.69847 1.00781 4.4996C1.00781 4.30072 1.0868 4.10999 1.2274 3.96935Z" fill="white"/>
</svg>
